<svg xmlns="http://www.w3.org/2000/svg" viewBox="0 0 132 78" role="img" aria-label="Confetti">
  
  <style>.cf{transform-box:fill-box;transform-origin:center;animation:cf 2.4s ease-out infinite}@keyframes cf{0%{transform:translate(0,18px) scale(.4);opacity:0}15%{opacity:1}60%{opacity:1}100%{transform:translate(0,-6px) rotate(90deg);opacity:0}}</style>
  <g>
    <rect class="cf" x="36" y="32" width="6" height="9" rx="1.5" fill="#2f74e6" transform="rotate(12 39 36)" style="animation-delay:0.00s"/>
    <rect class="cf" x="52" y="22" width="6" height="9" rx="1.5" fill="#00b295" transform="rotate(-20 55 26)" style="animation-delay:0.05s"/>
    <rect class="cf" x="72" y="18" width="6" height="9" rx="1.5" fill="#f6b93b" transform="rotate(8 75 22)" style="animation-delay:0.10s"/>
    <rect class="cf" x="90" y="24" width="6" height="9" rx="1.5" fill="#ec4899" transform="rotate(24 93 28)" style="animation-delay:0.15s"/>
    <rect class="cf" x="104" y="34" width="6" height="9" rx="1.5" fill="#a855f7" transform="rotate(-12 107 38)" style="animation-delay:0.20s"/>
    <rect class="cf" x="44" y="44" width="6" height="9" rx="1.5" fill="#2f74e6" transform="rotate(16 47 48)" style="animation-delay:0.25s"/>
    <rect class="cf" x="82" y="42" width="6" height="9" rx="1.5" fill="#00b295" transform="rotate(-18 85 46)" style="animation-delay:0.30s"/>
    <rect class="cf" x="98" y="48" width="6" height="9" rx="1.5" fill="#f6b93b" transform="rotate(10 101 52)" style="animation-delay:0.35s"/>
  </g>
</svg>
