<svg xmlns="http://www.w3.org/2000/svg" viewBox="0 0 64 64" fill="none"><path d="M14 10 L15.8 14.2 L20 16 L15.8 17.8 L14 22 L12.2 17.8 L8 16 L12.2 14.2 Z" fill="#ffd700"/><path d="M26 18 L27.2 20.8 L30 22 L27.2 23.2 L26 26 L24.8 23.2 L22 22 L24.8 20.8 Z" fill="#ffd700"/><path d="M40 8 L41.8 12.2 L46 14 L41.8 15.8 L40 20 L38.2 15.8 L34 14 L38.2 12.2 Z" fill="#ffd700"/><path d="M50 22 L51.2 24.8 L54 26 L51.2 27.2 L50 30 L48.8 27.2 L46 26 L48.8 24.8 Z" fill="#ffd700"/><path d="M20 34 L21.8 38.2 L26 40 L21.8 41.8 L20 46 L18.2 41.8 L14 40 L18.2 38.2 Z" fill="#ffd700"/><path d="M38 40 L39.2 42.8 L42 44 L39.2 45.2 L38 48 L36.8 45.2 L34 44 L36.8 42.8 Z" fill="#ffd700"/><path d="M52 36 L53.8 40.2 L58 42 L53.8 43.8 L52 48 L50.2 43.8 L46 42 L50.2 40.2 Z" fill="#ffd700"/><path d="M30 28 L31.2 30.8 L34 32 L31.2 33.2 L30 36 L28.8 33.2 L26 32 L28.8 30.8 Z" fill="#ffd700"/></svg>
