<svg xmlns="http://www.w3.org/2000/svg" viewBox="0 0 64 64" fill="none"><line x1="12" y1="8" x2="9" y2="22" stroke="#9dc0f0" stroke-width="2" stroke-linecap="round" opacity="0.8"/><line x1="24" y1="4" x2="21" y2="18" stroke="#9dc0f0" stroke-width="2" stroke-linecap="round" opacity="0.8"/><line x1="36" y1="10" x2="33" y2="24" stroke="#9dc0f0" stroke-width="2" stroke-linecap="round" opacity="0.8"/><line x1="48" y1="6" x2="45" y2="20" stroke="#9dc0f0" stroke-width="2" stroke-linecap="round" opacity="0.8"/><line x1="18" y1="30" x2="15" y2="44" stroke="#9dc0f0" stroke-width="2" stroke-linecap="round" opacity="0.8"/><line x1="42" y1="28" x2="39" y2="42" stroke="#9dc0f0" stroke-width="2" stroke-linecap="round" opacity="0.8"/><line x1="54" y1="34" x2="51" y2="48" stroke="#9dc0f0" stroke-width="2" stroke-linecap="round" opacity="0.8"/><line x1="30" y1="26" x2="27" y2="40" stroke="#9dc0f0" stroke-width="2" stroke-linecap="round" opacity="0.8"/><line x1="13" y1="8" x2="10" y2="22" stroke="#bcd3f7" stroke-width="2" stroke-linecap="round" opacity="0.8"/><line x1="25" y1="4" x2="22" y2="18" stroke="#bcd3f7" stroke-width="2" stroke-linecap="round" opacity="0.8"/><line x1="37" y1="10" x2="34" y2="24" stroke="#bcd3f7" stroke-width="2" stroke-linecap="round" opacity="0.8"/><line x1="49" y1="6" x2="46" y2="20" stroke="#bcd3f7" stroke-width="2" stroke-linecap="round" opacity="0.8"/><line x1="19" y1="30" x2="16" y2="44" stroke="#bcd3f7" stroke-width="2" stroke-linecap="round" opacity="0.8"/><line x1="43" y1="28" x2="40" y2="42" stroke="#bcd3f7" stroke-width="2" stroke-linecap="round" opacity="0.8"/><line x1="55" y1="34" x2="52" y2="48" stroke="#bcd3f7" stroke-width="2" stroke-linecap="round" opacity="0.8"/><line x1="31" y1="26" x2="28" y2="40" stroke="#bcd3f7" stroke-width="2" stroke-linecap="round" opacity="0.8"/></svg>
