<svg xmlns="http://www.w3.org/2000/svg" viewBox="0 0 64 64" fill="none"><path d="M0 7 C6 1 3 -7 0 -7 C-3 -7 -6 1 0 7 Z" fill="#ffb6c1" transform="translate(16 18) rotate(20) scale(1.3)"/><path d="M0 7 C6 1 3 -7 0 -7 C-3 -7 -6 1 0 7 Z" fill="#ff9eb5" transform="translate(42 16) rotate(-30) scale(1.3)"/><path d="M0 7 C6 1 3 -7 0 -7 C-3 -7 -6 1 0 7 Z" fill="#ffd1dc" transform="translate(28 40) rotate(50) scale(1.3)"/><path d="M0 7 C6 1 3 -7 0 -7 C-3 -7 -6 1 0 7 Z" fill="#ffb6c1" transform="translate(48 40) rotate(-10) scale(1.3)"/></svg>
