<svg xmlns="http://www.w3.org/2000/svg" viewBox="0 0 132 78" role="img" aria-label="Dissolve In">
  <defs><clipPath id="c"><rect x="40" y="10" width="52" height="44" rx="5"/></clipPath></defs>
  <style>.db{opacity:0;animation:db 2.9s ease-in-out infinite}@keyframes db{0%{opacity:0}20%,82%{opacity:1}96%,100%{opacity:0}}</style>
  <rect x="40" y="10" width="52" height="44" rx="5" fill="#bcd3f7"/>
  <g clip-path="url(#c)" shape-rendering="crispEdges">
    <rect class="db" x="40.0" y="10.0" width="13.0" height="11.0" fill="#2f74e6" style="animation-delay:0.55s"/>
    <rect class="db" x="53.0" y="10.0" width="13.0" height="11.0" fill="#2f74e6" style="animation-delay:1.21s"/>
    <rect class="db" x="66.0" y="10.0" width="13.0" height="11.0" fill="#2f74e6" style="animation-delay:0.22s"/>
    <rect class="db" x="79.0" y="10.0" width="13.0" height="11.0" fill="#2f74e6" style="animation-delay:0.88s"/>
    <rect class="db" x="40.0" y="21.0" width="13.0" height="11.0" fill="#2f74e6" style="animation-delay:1.54s"/>
    <rect class="db" x="53.0" y="21.0" width="13.0" height="11.0" fill="#2f74e6" style="animation-delay:0.00s"/>
    <rect class="db" x="66.0" y="21.0" width="13.0" height="11.0" fill="#2f74e6" style="animation-delay:0.77s"/>
    <rect class="db" x="79.0" y="21.0" width="13.0" height="11.0" fill="#2f74e6" style="animation-delay:1.43s"/>
    <rect class="db" x="40.0" y="32.0" width="13.0" height="11.0" fill="#2f74e6" style="animation-delay:0.33s"/>
    <rect class="db" x="53.0" y="32.0" width="13.0" height="11.0" fill="#2f74e6" style="animation-delay:0.99s"/>
    <rect class="db" x="66.0" y="32.0" width="13.0" height="11.0" fill="#2f74e6" style="animation-delay:1.65s"/>
    <rect class="db" x="79.0" y="32.0" width="13.0" height="11.0" fill="#2f74e6" style="animation-delay:0.11s"/>
    <rect class="db" x="40.0" y="43.0" width="13.0" height="11.0" fill="#2f74e6" style="animation-delay:0.66s"/>
    <rect class="db" x="53.0" y="43.0" width="13.0" height="11.0" fill="#2f74e6" style="animation-delay:1.32s"/>
    <rect class="db" x="66.0" y="43.0" width="13.0" height="11.0" fill="#2f74e6" style="animation-delay:0.44s"/>
    <rect class="db" x="79.0" y="43.0" width="13.0" height="11.0" fill="#2f74e6" style="animation-delay:1.10s"/>
  </g>
</svg>
