<svg xmlns="http://www.w3.org/2000/svg" viewBox="0 0 132 96" role="img" aria-label="Corkscrew">
  <svg x="30" y="6" width="72" height="60" viewBox="-12 -12 124 124" preserveAspectRatio="xMidYMid meet">
    <path d="M4,50 C9,26 17,26 22,50 C27,74 35,74 40,50 C45,26 53,26 58,50 C63,74 71,74 76,50 C81,26 89,26 94,50" fill="none" stroke="#bcd3f7" stroke-width="7" stroke-linecap="round" stroke-linejoin="round" stroke-dasharray="2 9"/>
    <path d="M4,50 C9,26 17,26 22,50 C27,74 35,74 40,50 C45,26 53,26 58,50 C63,74 71,74 76,50 C81,26 89,26 94,50" fill="none" stroke="#2f74e6" stroke-width="4.5" stroke-linecap="round" stroke-linejoin="round" opacity="0.35"/>
    <circle cx="4" cy="50" r="9" fill="#2f74e6"/>
  </svg>
  <text x="66" y="88" text-anchor="middle" font-family="-apple-system,Segoe UI,Roboto,Helvetica,Arial,sans-serif" font-size="14" font-weight="600" fill="#475569">Corkscrew</text>
</svg>
