<svg xmlns="http://www.w3.org/2000/svg" viewBox="0 0 132 78" role="img" aria-label="Double Loop">
  <svg x="30" y="6" width="72" height="60" viewBox="-12 -12 124 124" preserveAspectRatio="xMidYMid meet">
    <path d="M6,62 C6,32 28,32 28,52 C28,68 14,68 18,52 C22,30 48,28 56,50 C61,68 80,68 80,50 C80,34 68,34 68,48" fill="none" stroke="#bcd3f7" stroke-width="7" stroke-linecap="round" stroke-linejoin="round" stroke-dasharray="2 9"/>
    <path d="M6,62 C6,32 28,32 28,52 C28,68 14,68 18,52 C22,30 48,28 56,50 C61,68 80,68 80,50 C80,34 68,34 68,48" fill="none" stroke="#2f74e6" stroke-width="4.5" stroke-linecap="round" stroke-linejoin="round" opacity="0.35"/>
    <circle cx="6" cy="62" r="9" fill="#2f74e6"/>
  </svg>
  
</svg>
