<svg xmlns="http://www.w3.org/2000/svg" viewBox="0 0 132 96" role="img" aria-label="Figure 8">
  <svg x="30" y="6" width="72" height="60" viewBox="-12 -12 124 124" preserveAspectRatio="xMidYMid meet">
    <path d="M50,50 C68,28 92,28 92,50 C92,72 68,72 50,50 C32,28 8,28 8,50 C8,72 32,72 50,50 Z" fill="none" stroke="#bcd3f7" stroke-width="7" stroke-linecap="round" stroke-linejoin="round" stroke-dasharray="2 9"/>
    <path d="M50,50 C68,28 92,28 92,50 C92,72 68,72 50,50 C32,28 8,28 8,50 C8,72 32,72 50,50 Z" fill="none" stroke="#2f74e6" stroke-width="4.5" stroke-linecap="round" stroke-linejoin="round" opacity="0.35"/>
    <circle cx="50" cy="50" r="9" fill="#2f74e6"/>
  </svg>
  <text x="66" y="88" text-anchor="middle" font-family="-apple-system,Segoe UI,Roboto,Helvetica,Arial,sans-serif" font-size="14" font-weight="600" fill="#475569">Figure 8</text>
</svg>
