<svg xmlns="http://www.w3.org/2000/svg" viewBox="0 0 132 78" role="img" aria-label="pill">
  
  <style>.p{fill:#f6b93b;animation:tp 3.2s ease-in-out infinite}@keyframes tp{0%,12%{opacity:0}30%,68%{opacity:.9}88%,100%{opacity:0}}.w{fill:#5a6675}</style>
  <g>
    <rect class="p" x="27" y="20" width="24" height="13" rx="6" style="animation-delay:0.00s"/>
    <rect class="p" x="49" y="20" width="32" height="13" rx="6" style="animation-delay:0.16s"/>
    <rect class="p" x="79" y="20" width="26" height="13" rx="6" style="animation-delay:0.32s"/>
    <rect class="p" x="27" y="38" width="30" height="13" rx="6" style="animation-delay:0.48s"/>
    <rect class="p" x="55" y="38" width="22" height="13" rx="6" style="animation-delay:0.64s"/>
    <rect class="p" x="75" y="38" width="30" height="13" rx="6" style="animation-delay:0.80s"/>
    <rect class="w" x="30" y="22" width="18" height="9" rx="3" style="animation-delay:0.00s" />
    <rect class="w" x="52" y="22" width="26" height="9" rx="3" style="animation-delay:0.16s" />
    <rect class="w" x="82" y="22" width="20" height="9" rx="3" style="animation-delay:0.32s" />
    <rect class="w" x="30" y="40" width="24" height="9" rx="3" style="animation-delay:0.48s" />
    <rect class="w" x="58" y="40" width="16" height="9" rx="3" style="animation-delay:0.64s" />
    <rect class="w" x="78" y="40" width="24" height="9" rx="3" style="animation-delay:0.80s" />
  </g>
</svg>
