<svg xmlns="http://www.w3.org/2000/svg" viewBox="0 0 132 78" role="img" aria-label="underline">
  
  <style>.w{fill:#9fb2c9}.u{fill:#2f74e6;transform-box:fill-box;transform-origin:0 50%;animation:tu 3.2s ease-in-out infinite}@keyframes tu{0%,12%{transform:scaleX(0)}30%,68%{transform:scaleX(1)}88%,100%{transform:scaleX(0)}}</style>
  <g>
    <rect class="w" x="30" y="22" width="18" height="9" rx="3" style="animation-delay:0.00s" />
    <rect class="w" x="52" y="22" width="26" height="9" rx="3" style="animation-delay:0.16s" />
    <rect class="w" x="82" y="22" width="20" height="9" rx="3" style="animation-delay:0.32s" />
    <rect class="w" x="30" y="40" width="24" height="9" rx="3" style="animation-delay:0.48s" />
    <rect class="w" x="58" y="40" width="16" height="9" rx="3" style="animation-delay:0.64s" />
    <rect class="w" x="78" y="40" width="24" height="9" rx="3" style="animation-delay:0.80s" />
    <rect class="u" x="30" y="33" width="18" height="2" rx="1" style="animation-delay:0.00s"/>
    <rect class="u" x="52" y="33" width="26" height="2" rx="1" style="animation-delay:0.16s"/>
    <rect class="u" x="82" y="33" width="20" height="2" rx="1" style="animation-delay:0.32s"/>
    <rect class="u" x="30" y="51" width="24" height="2" rx="1" style="animation-delay:0.48s"/>
    <rect class="u" x="58" y="51" width="16" height="2" rx="1" style="animation-delay:0.64s"/>
    <rect class="u" x="78" y="51" width="24" height="2" rx="1" style="animation-delay:0.80s"/>
  </g>
</svg>
