<svg xmlns="http://www.w3.org/2000/svg" viewBox="0 0 132 78"><defs><clipPath id="c"><rect x="6" y="5" width="120" height="58" rx="9"/></clipPath></defs><rect x="6" y="5" width="120" height="58" rx="9" fill="#0f1b2e"/><g clip-path="url(#c)" fill="#6aa6ff"><circle cx="20" cy="18" r="1"/><circle cx="34" cy="18" r="2"/><circle cx="48" cy="18" r="3"/><circle cx="62" cy="18" r="3.6"/><circle cx="76" cy="18" r="3"/><circle cx="90" cy="18" r="2"/><circle cx="104" cy="18" r="1"/><circle cx="20" cy="34" r="2"/><circle cx="34" cy="34" r="3"/><circle cx="48" cy="34" r="3.6"/><circle cx="62" cy="34" r="4"/><circle cx="76" cy="34" r="3.6"/><circle cx="90" cy="34" r="3"/><circle cx="104" cy="34" r="2"/><circle cx="20" cy="50" r="1"/><circle cx="34" cy="50" r="2"/><circle cx="48" cy="50" r="3"/><circle cx="62" cy="50" r="3.6"/><circle cx="76" cy="50" r="3"/><circle cx="90" cy="50" r="2"/><circle cx="104" cy="50" r="1"/></g></svg>