<svg xmlns="http://www.w3.org/2000/svg" viewBox="0 0 132 96" role="img" aria-label="Pixelate">
  <style>
    .pzb{animation:pzb 2.6s ease-in-out infinite}
    @keyframes pzb{0%,15%{opacity:1}55%,100%{opacity:0}}
    .pzs{animation:pzs 2.6s ease-in-out infinite}
    @keyframes pzs{0%,35%{opacity:0}70%,100%{opacity:1}}
  </style>
  <defs><clipPath id="pz"><rect x="40" y="10" width="52" height="44" rx="5"/></clipPath></defs>
  <g clip-path="url(#pz)">
    <g class="pzs"><rect x="40" y="10" width="52" height="44" fill="#bcd3f7"/><circle cx="54" cy="24" r="6" fill="#fbbf24"/><path d="M40 54 L58 34 L70 45 L80 38 L92 54 Z" fill="#2f74e6"/></g>
    <g class="pzb" shape-rendering="crispEdges">
      <rect x="40" y="10" width="13" height="11" fill="#9dc0f0"/><rect x="53" y="10" width="13" height="11" fill="#bcd3f7"/><rect x="66" y="10" width="13" height="11" fill="#7ea9e8"/><rect x="79" y="10" width="13" height="11" fill="#bcd3f7"/>
      <rect x="40" y="21" width="13" height="11" fill="#bcd3f7"/><rect x="53" y="21" width="13" height="11" fill="#fbbf24"/><rect x="66" y="21" width="13" height="11" fill="#9dc0f0"/><rect x="79" y="21" width="13" height="11" fill="#bcd3f7"/>
      <rect x="40" y="32" width="13" height="11" fill="#5b8fe0"/><rect x="53" y="32" width="13" height="11" fill="#2f74e6"/><rect x="66" y="32" width="13" height="11" fill="#4f86df"/><rect x="79" y="32" width="13" height="11" fill="#7ea9e8"/>
      <rect x="40" y="43" width="13" height="11" fill="#2f74e6"/><rect x="53" y="43" width="13" height="11" fill="#3d7ce0"/><rect x="66" y="43" width="13" height="11" fill="#2f74e6"/><rect x="79" y="43" width="13" height="11" fill="#5b8fe0"/>
    </g>
  </g>
  <text x="66" y="86" text-anchor="middle" font-family="-apple-system,Segoe UI,Roboto,Helvetica,Arial,sans-serif" font-size="15" font-weight="600" fill="#475569">Pixelate</text>
</svg>
